<svg width="277" height="134" viewBox="0 0 277 134" fill="none" xmlns="http://www.w3.org/2000/svg">
<rect width="277" height="134" transform="matrix(1 0 0 -1 0 134)" fill="white"/>
<path d="M5.54169 29.1857H271.393V92.75H5.54169V29.1857Z" fill="#01191F" stroke="#870404"/>
<path d="M242.324 34.4915L238.811 27.5L258.618 27.5H273.5L273.5 40.3116L273.5 58.9717L242.324 34.4915Z" fill="#E25B0F" fill-opacity="0.63" stroke="black"/>
<path d="M2.7035 52.8317L2.8818 26.8978L56.844 26.5668L2.7035 52.8317Z" fill="#0AEE8E" fill-opacity="0.51" stroke="black"/>
<path d="M31.6998 95.409L3.25183 95.409L3.25182 63.748L11.1978 52.951L31.6998 95.409Z" fill="#F17CBB" fill-opacity="0.66" stroke="black"/>
<path d="M248.678 94.4627L224.918 94.3703L248.919 78.9194L249.026 78.8508L249.082 78.7459L261.718 55.1946L273.697 62.4488L273.779 78.6369L273.86 94.5605L248.678 94.4627Z" fill="#00FFF0" fill-opacity="0.38" stroke="black"/>
<g filter="url(#filter0_b_31_4)">
<path d="M80.1522 75.4286C79.5042 75.4286 78.9402 75.2126 78.4602 74.7806C77.9802 74.3486 77.7402 73.8326 77.7402 73.2326V52.4246C77.7402 51.8246 77.9682 51.3086 78.4242 50.8766C78.9042 50.4446 79.4802 50.2286 80.1522 50.2286H89.8362C92.1402 50.2286 93.9762 50.8766 95.3442 52.1726C96.7362 53.4446 97.4322 55.1606 97.4322 57.3206C97.4322 58.3526 97.1562 59.3366 96.6042 60.2726C96.0522 61.1846 95.3202 61.8926 94.4082 62.3966V62.5046C95.6562 62.9366 96.6402 63.6446 97.3602 64.6286C98.1042 65.6126 98.4762 66.7406 98.4762 68.0126C98.4762 69.4526 98.1402 70.7366 97.4682 71.8646C96.7962 72.9926 95.8602 73.8686 94.6602 74.4926C93.4602 75.1166 92.0922 75.4286 90.5562 75.4286H80.1522ZM89.7642 60.8126C90.5562 60.8126 91.2282 60.4886 91.7802 59.8406C92.3562 59.1926 92.6442 58.4126 92.6442 57.5006C92.6442 56.5166 92.3802 55.7366 91.8522 55.1606C91.3482 54.5846 90.6522 54.2966 89.7642 54.2966H82.4202V60.8126H89.7642ZM90.4842 71.3606C91.4682 71.3606 92.2482 71.0726 92.8242 70.4966C93.4002 69.8966 93.6882 69.0806 93.6882 68.0486C93.6882 67.0406 93.4002 66.2606 92.8242 65.7086C92.2722 65.1326 91.4922 64.8446 90.4842 64.8446H82.4202V71.3606H90.4842ZM104.951 55.4126C104.087 55.4126 103.367 55.1606 102.791 54.6566C102.239 54.1286 101.963 53.4566 101.963 52.6406C101.963 51.8486 102.239 51.2006 102.791 50.6966C103.367 50.1686 104.087 49.9046 104.951 49.9046C105.815 49.9046 106.523 50.1686 107.075 50.6966C107.651 51.2006 107.939 51.8486 107.939 52.6406C107.939 53.4566 107.651 54.1286 107.075 54.6566C106.523 55.1606 105.815 55.4126 104.951 55.4126ZM102.683 59.8406C102.683 58.8566 103.055 58.1606 103.799 57.7526C104.543 57.3206 105.671 57.1046 107.183 57.1046V73.0166C107.183 73.9766 106.811 74.6726 106.067 75.1046C105.323 75.5366 104.195 75.7526 102.683 75.7526V59.8406ZM119.609 82.9526C118.193 82.9526 116.933 82.7486 115.829 82.3406C114.725 81.9566 113.861 81.4286 113.237 80.7566C112.613 80.0846 112.301 79.3406 112.301 78.5246C112.301 77.7086 112.577 77.1326 113.129 76.7966C113.705 76.4606 114.509 76.2926 115.541 76.2926C115.637 77.2766 116.021 78.0326 116.693 78.5606C117.365 79.1126 118.337 79.3886 119.609 79.3886C121.025 79.3886 122.021 79.0406 122.597 78.3446C123.197 77.6486 123.497 76.6886 123.497 75.4646V74.2406C123.857 73.9766 124.121 73.7246 124.289 73.4846L124.145 73.3046C123.521 73.9286 122.681 74.4326 121.625 74.8166C120.593 75.2006 119.621 75.3926 118.709 75.3926C117.365 75.3926 116.165 75.1286 115.109 74.6006C114.053 74.0486 113.213 73.2806 112.589 72.2966C111.989 71.3126 111.689 70.1966 111.689 68.9486V63.5846C111.689 62.3846 112.001 61.2926 112.625 60.3086C113.273 59.3006 114.113 58.5206 115.145 57.9686C116.201 57.3926 117.329 57.1046 118.529 57.1046C119.849 57.1046 120.965 57.3686 121.877 57.8966C122.813 58.4246 123.665 59.1806 124.433 60.1646L124.577 60.0206C124.457 59.8046 124.229 59.4926 123.893 59.0846C123.893 57.7646 125.273 57.1046 128.033 57.1046V74.8166C128.033 76.4006 127.673 77.8046 126.953 79.0286C126.233 80.2526 125.225 81.2126 123.929 81.9086C122.657 82.6046 121.217 82.9526 119.609 82.9526ZM119.861 71.5406C120.917 71.5406 121.805 71.2766 122.525 70.7486C123.245 70.1966 123.605 69.5486 123.605 68.8046V63.6926C123.605 62.9246 123.245 62.2766 122.525 61.7486C121.829 61.2206 120.941 60.9566 119.861 60.9566C118.685 60.9566 117.773 61.2086 117.125 61.7126C116.501 62.2166 116.189 62.9366 116.189 63.8726V68.6246C116.189 69.5366 116.501 70.2566 117.125 70.7846C117.749 71.2886 118.661 71.5406 119.861 71.5406ZM134.539 75.4286C133.867 75.4286 133.291 75.2246 132.811 74.8166C132.355 74.3846 132.127 73.8566 132.127 73.2326V52.4246C132.127 51.8006 132.355 51.2846 132.811 50.8766C133.267 50.4446 133.843 50.2286 134.539 50.2286H142.531C144.667 50.2286 146.551 50.6366 148.183 51.4526C149.839 52.2686 151.111 53.4206 151.999 54.9086C152.911 56.3726 153.367 58.0526 153.367 59.9486V65.6366C153.367 67.5326 152.911 69.2246 151.999 70.7126C151.087 72.2006 149.803 73.3646 148.147 74.2046C146.515 75.0206 144.643 75.4286 142.531 75.4286H134.539ZM142.171 71.2886C144.259 71.2886 145.843 70.8206 146.923 69.8846C148.003 68.9246 148.543 67.5206 148.543 65.6726V59.8766C148.543 58.0766 148.003 56.7086 146.923 55.7726C145.843 54.8366 144.259 54.3686 142.171 54.3686H136.951V71.2886H142.171ZM158.273 75.7526C157.241 75.6326 156.425 75.2726 155.825 74.6726C155.249 74.0726 154.961 73.3166 154.961 72.4046C154.961 71.7086 155.129 70.9886 155.465 70.2446L163.709 51.4886C164.165 50.4326 164.957 49.9046 166.085 49.9046C167.189 49.9046 167.969 50.4326 168.425 51.4886L176.669 70.2446C177.005 71.0366 177.173 71.7566 177.173 72.4046C177.173 73.3166 176.873 74.0726 176.273 74.6726C175.697 75.2726 174.881 75.6326 173.825 75.7526L170.801 68.9126H161.333L158.273 75.7526ZM169.325 64.8086L165.365 54.9446L164.933 55.1246L165.797 57.3566L162.773 64.8086H169.325ZM189.524 75.7526C187.556 75.7526 185.756 75.3686 184.124 74.6006C182.492 73.8086 181.196 72.7406 180.236 71.3966C179.3 70.0526 178.832 68.5886 178.832 67.0046V58.6166C178.832 57.0326 179.3 55.5806 180.236 54.2606C181.196 52.9166 182.492 51.8606 184.124 51.0926C185.756 50.3006 187.556 49.9046 189.524 49.9046C191.492 49.9046 193.292 50.3006 194.924 51.0926C196.58 51.8606 197.876 52.9166 198.812 54.2606C199.772 55.5806 200.252 57.0326 200.252 58.6166V67.0046C200.252 68.5886 199.772 70.0526 198.812 71.3966C197.876 72.7406 196.58 73.8086 194.924 74.6006C193.292 75.3686 191.492 75.7526 189.524 75.7526ZM189.524 71.5406C191.324 71.5406 192.764 71.1206 193.844 70.2806C194.924 69.4166 195.464 68.3006 195.464 66.9326V58.7246C195.464 57.3326 194.924 56.2166 193.844 55.3766C192.764 54.5126 191.324 54.0806 189.524 54.0806C187.748 54.0806 186.32 54.5126 185.24 55.3766C184.16 56.2166 183.62 57.3326 183.62 58.7246V66.9326C183.62 68.3006 184.16 69.4166 185.24 70.2806C186.32 71.1206 187.748 71.5406 189.524 71.5406Z" fill="white"/>
</g>
<defs>
<filter id="filter0_b_31_4" x="73.7402" y="45.9045" width="130.512" height="41.0481" filterUnits="userSpaceOnUse" color-interpolation-filters="sRGB">
<feFlood flood-opacity="0" result="BackgroundImageFix"/>
<feGaussianBlur in="BackgroundImage" stdDeviation="2"/>
<feComposite in2="SourceAlpha" operator="in" result="effect1_backgroundBlur_31_4"/>
<feBlend mode="normal" in="SourceGraphic" in2="effect1_backgroundBlur_31_4" result="shape"/>
</filter>
</defs>
</svg>
