<svg id="logo" width="411" height="223" viewBox="0 0 411 223" fill="none" xmlns="http://www.w3.org/2000/svg">
<rect x="-13.7436" y="43.2115" width="438.41" height="160.705" fill="white" fill-opacity="0.49"/>
<line y1="-0.5" x2="8.52972" y2="-0.5" transform="matrix(0.560845 -0.827921 0.90081 0.434213 109.968 86.8053)" stroke="#D28106" stroke-opacity="0.28"/>
<line y1="-0.5" x2="8.52973" y2="-0.5" transform="matrix(0.560843 -0.827922 0.900809 0.434215 84.853 112.027)" stroke="#D28106" stroke-opacity="0.28"/>
<rect x="17.879" y="59.5664" width="16.7435" height="108.956" fill="#76521C" fill-opacity="0.64"/>
<ellipse cx="54.788" cy="141.571" rx="29.3325" ry="26.7926" fill="#569D73" fill-opacity="0.68"/>
<ellipse cx="56.7478" cy="142.292" rx="10.1657" ry="7.06196" fill="white"/>
<rect x="88.466" y="117.931" width="18.4686" height="50.4332" fill="#006AA6" fill-opacity="0.63"/>
<ellipse cx="98.6066" cy="95.8849" rx="10.1657" ry="8.0708" fill="#D28D06" fill-opacity="0.4"/>
<ellipse cx="139.867" cy="142.292" rx="29.8991" ry="26.2301" fill="#569D73" fill-opacity="0.68"/>
<ellipse cx="139.867" cy="142.292" rx="29.8991" ry="26.2301" fill="#569D73" fill-opacity="0.68"/>
<ellipse cx="140.465" cy="142.292" rx="10.1657" ry="7.06196" fill="white"/>
<rect x="155.415" y="148.345" width="14.3516" height="37.3274" fill="#7D4F09" fill-opacity="0.53"/>
<rect width="13.5668" height="12.8471" transform="matrix(-0.955958 -0.293503 0.396173 -0.918176 164.796 196.716)" fill="#774802" fill-opacity="0.44"/>
<path d="M144 192H165V196.296L144 200V192Z" fill="#7D4F09" fill-opacity="0.53"/>
<g filter="url(#filter0_i_2:10)">
<path d="M219.608 112.712H255.176V163.112C249.608 164.936 243.992 166.28 238.328 167.144C232.664 168.008 226.232 168.44 219.032 168.44C208.376 168.44 199.4 166.328 192.104 162.104C184.808 157.784 179.24 151.688 175.4 143.816C171.656 135.848 169.784 126.44 169.784 115.592C169.784 104.84 171.896 95.528 176.12 87.656C180.344 79.784 186.392 73.688 194.264 69.368C202.232 64.952 211.832 62.744 223.064 62.744C228.824 62.744 234.248 63.272 239.336 64.328C244.52 65.384 249.32 66.872 253.736 68.792L248.84 80.024C245.192 78.392 241.064 77 236.456 75.848C231.944 74.696 227.24 74.12 222.344 74.12C210.056 74.12 200.456 77.816 193.544 85.208C186.728 92.6 183.32 102.728 183.32 115.592C183.32 123.752 184.616 131 187.208 137.336C189.896 143.576 194.072 148.472 199.736 152.024C205.4 155.48 212.84 157.208 222.056 157.208C226.568 157.208 230.408 156.968 233.576 156.488C236.744 156.008 239.624 155.432 242.216 154.76V124.232H219.608V112.712Z" fill="#004D03" fill-opacity="0.56"/>
</g>
<path d="M259.719 167V117.312H268.531V124.344C269.656 121.281 272.703 119.062 277.672 117.688C280.266 116.938 282.969 116.578 285.781 116.609L285.5 124.156C281.25 124.156 277.359 125 273.828 126.688C270.297 128.375 268.531 130.219 268.531 132.219V167H259.719Z" fill="#006AA6" fill-opacity="0.44"/>
<ellipse cx="309.46" cy="143.657" rx="28.7031" ry="25.7257" fill="#006AA6" fill-opacity="0.58"/>
<ellipse cx="309.989" cy="142.687" rx="10.7637" ry="11.0974" fill="white"/>
<path d="M329.961 117.975L343.244 113.897L362.317 158.1L351.18 165.936L329.961 117.975Z" fill="#004D03" fill-opacity="0.67"/>
<path d="M359.862 168.822C358.95 173.458 351.991 164.257 351.991 164.257L361.905 116.829L370.634 118.127C370.634 118.127 360.774 164.186 359.862 168.822Z" fill="#76521C" fill-opacity="0.64"/>
<path d="M355.5 118.979L366.738 115.529L388.009 164.825L376.77 168.276L355.5 118.979Z" fill="#004D03" fill-opacity="0.67"/>
<line y1="-0.5" x2="7.71527" y2="-0.5" transform="matrix(-0.620052 -0.784561 0.871627 -0.49017 88.4409 85.7964)" stroke="#D28106" stroke-opacity="0.28"/>
<line y1="-0.5" x2="7.71527" y2="-0.5" transform="matrix(-0.620052 -0.784561 0.871627 -0.49017 113.556 111.018)" stroke="#D28106" stroke-opacity="0.28"/>
<line x1="98.7046" y1="83.7788" x2="98.7046" y2="76.7168" stroke="#D28106" stroke-opacity="0.28"/>
<line x1="98.7046" y1="113.035" x2="98.7046" y2="105.973" stroke="#D28106" stroke-opacity="0.28"/>
<line x1="84.853" y1="96.3849" x2="75.2853" y2="96.3849" stroke="#D28106" stroke-opacity="0.28"/>
<line x1="121.928" y1="96.3849" x2="112.36" y2="96.3849" stroke="#D28106" stroke-opacity="0.28"/>
<path d="M386.594 167.157C386.594 167.157 376.674 172.277 375.428 165.496C374.183 158.714 385.453 117.537 385.453 117.537L396.619 119.198L386.594 167.157Z" fill="#774802" fill-opacity="0.44"/>
<rect x="355.5" y="114.524" width="17.0256" height="6.02643" fill="#004D03"/>
<rect x="328.897" y="113.52" width="17.0256" height="6.02642" fill="#004D03"/>
<rect x="383.167" y="114.524" width="17.0257" height="6.02643" fill="#004D03"/>
<rect x="13.9231" y="55.2643" width="21.2821" height="21.0925" fill="#004D03" fill-opacity="0.56"/>
<rect width="25.2073" height="7.52958" transform="matrix(0.945744 -0.324914 0.35978 0.933037 263.374 125.07)" fill="#006AA6" fill-opacity="0.63"/>
<rect x="131" y="192" width="17" height="8" fill="#76521C" fill-opacity="0.64"/>
<path d="M129 183C131.078 179.87 132.615 179.889 136 183V200C136 200 129 205 129 200C129 195 129 183 129 183Z" fill="#004D03" fill-opacity="0.56"/>
<path d="M126 190.902C126 190.902 161.5 200.402 167 190.902C172.5 181.402 167 198.402 167 203.902C167 209.402 129.5 211.304 126 203.902C122.5 196.5 126 190.902 126 190.902Z" fill="#004D03" fill-opacity="0.56"/>
<path d="M123.625 190.189C123.625 190.189 160.702 197.533 166.447 190.189C172.191 182.844 166.447 195.987 166.447 200.239C166.447 204.491 127.28 205.962 123.625 200.239C119.969 194.516 123.625 190.189 123.625 190.189Z" fill="#774802" fill-opacity="0.44"/>
<rect x="259" y="123" width="7" height="36" fill="#006AA6" fill-opacity="0.44"/>
<rect x="266" y="138" width="2" height="30" fill="black" fill-opacity="0.3"/>
<rect x="122" y="181" width="14" height="16" fill="#76521C" fill-opacity="0.64"/>
<rect x="217" y="111" width="36" height="15" fill="#004D03" fill-opacity="0.67"/>
<rect x="349" y="163" width="14" height="8" fill="#004D03" fill-opacity="0.67"/>
<path d="M375 163H388V171H375V163Z" fill="#004D03" fill-opacity="0.67"/>
<rect x="251.88" y="89.0368" width="11" height="25.3304" transform="rotate(-160 251.88 89.0368)" fill="#004D03" fill-opacity="0.67"/>
<defs>
<filter id="filter0_i_2:10" x="169.784" y="62.744" width="85.392" height="109.696" filterUnits="userSpaceOnUse" color-interpolation-filters="sRGB">
<feFlood flood-opacity="0" result="BackgroundImageFix"/>
<feBlend mode="normal" in="SourceGraphic" in2="BackgroundImageFix" result="shape"/>
<feColorMatrix in="SourceAlpha" type="matrix" values="0 0 0 0 0 0 0 0 0 0 0 0 0 0 0 0 0 0 127 0" result="hardAlpha"/>
<feOffset dy="4"/>
<feGaussianBlur stdDeviation="2"/>
<feComposite in2="hardAlpha" operator="arithmetic" k2="-1" k3="1"/>
<feColorMatrix type="matrix" values="0 0 0 0 0 0 0 0 0 0 0 0 0 0 0 0 0 0 0.25 0"/>
<feBlend mode="normal" in2="shape" result="effect1_innerShadow_2:10"/>
</filter>
</defs>
</svg>
